<?xml version="1.0" standalone="no"?>
<!DOCTYPE svg PUBLIC "-//W3C//DTD SVG 20010904//EN"
 "http://www.w3.org/TR/2001/REC-SVG-20010904/DTD/svg10.dtd">
<svg version="1.0" xmlns="http://www.w3.org/2000/svg"
 width="302.000000pt" height="54.000000pt" viewBox="0 0 302.000000 54.000000"
 preserveAspectRatio="xMidYMid meet">

<g transform="translate(0.000000,54.000000) scale(0.100000,-0.100000)"
fill="#000000" stroke="none">
<path d="M62 479 c2 -16 11 -25 24 -27 29 -4 34 -34 34 -192 0 -160 -5 -187
-36 -194 -16 -4 -24 -14 -24 -27 0 -21 3 -21 158 -17 139 4 162 7 205 27 56
28 113 90 127 140 24 87 2 189 -51 238 -57 52 -113 66 -282 71 l-159 5 4 -24z
m306 -55 c45 -34 72 -99 72 -176 0 -125 -39 -172 -142 -173 -42 0 -61 4 -68
15 -11 18 -13 343 -2 354 13 14 112 0 140 -20z"/>
<path d="M636 484 c-8 -22 -9 -21 24 -33 l30 -10 0 -181 0 -180 -27 -12 c-16
-7 -29 -13 -31 -14 -1 0 0 -9 4 -18 5 -14 29 -16 199 -16 l193 0 11 48 c7 26
14 55 17 65 4 13 0 17 -18 17 -16 0 -29 -11 -43 -38 l-20 -37 -87 -3 -88 -3 0
86 0 85 59 0 c58 0 60 -1 63 -27 2 -20 9 -28 23 -28 18 0 20 7 20 80 0 73 -2
80 -20 80 -14 0 -21 -8 -23 -27 -3 -27 -5 -28 -63 -28 l-59 0 0 80 0 80 75 0
75 0 17 -35 c11 -24 24 -35 38 -35 20 0 21 2 11 60 l-10 60 -182 0 c-157 0
-183 -2 -188 -16z"/>
<path d="M1112 478 c2 -15 11 -24 24 -26 29 -4 34 -34 34 -201 0 -159 -4 -177
-36 -185 -15 -4 -24 -14 -24 -26 0 -20 6 -20 187 -18 l188 3 17 65 c14 50 15
66 5 72 -23 15 -33 8 -55 -37 l-22 -46 -78 3 -77 3 -3 140 c-2 77 0 159 3 183
6 38 9 42 36 42 24 0 29 4 29 25 l0 25 -116 0 c-114 0 -115 0 -112 -22z"/>
<path d="M1557 481 c-4 -15 2 -22 24 -30 l29 -10 0 -128 c0 -147 9 -190 51
-238 36 -40 84 -58 159 -58 58 0 89 11 128 47 49 44 57 72 62 231 l5 149 25 6
c16 4 25 13 25 25 0 18 -8 20 -88 23 -87 3 -88 2 -85 -20 2 -14 12 -24 28 -28
25 -6 25 -7 28 -125 2 -67 -2 -136 -8 -157 -23 -80 -119 -106 -182 -49 l-33
29 -3 146 -3 146 25 10 c16 6 26 17 26 30 0 19 -6 20 -104 20 -94 0 -104 -2
-109 -19z"/>
<path d="M2124 485 c-7 -18 3 -35 21 -35 12 0 145 -179 145 -196 0 -17 -134
-183 -151 -187 -11 -3 -19 -14 -19 -26 0 -20 5 -21 80 -21 73 0 80 2 80 20 0
12 -9 22 -24 26 l-25 6 46 69 c26 38 50 66 54 62 4 -4 26 -35 48 -68 l42 -60
-26 -8 c-15 -5 -25 -16 -25 -28 0 -18 8 -19 110 -19 102 0 110 1 110 19 0 11
-9 22 -20 26 -17 5 -153 186 -167 221 -6 17 104 153 133 164 16 7 21 15 17 29
-5 19 -13 21 -79 21 -68 0 -74 -2 -74 -21 0 -12 8 -23 20 -26 11 -3 20 -7 20
-9 0 -6 -71 -104 -76 -104 -2 0 -19 24 -39 52 -33 50 -34 53 -15 60 11 4 20
17 20 28 0 19 -6 20 -100 20 -79 0 -102 -3 -106 -15z"/>
<path d="M2622 478 c2 -13 11 -24 23 -27 11 -2 23 -8 27 -15 4 -6 8 -85 8
-176 0 -91 -4 -170 -8 -176 -4 -6 -17 -14 -29 -18 -14 -4 -23 -15 -23 -27 0
-19 7 -19 198 -17 l197 3 3 62 c3 74 -9 81 -38 23 l-21 -41 -87 3 -87 3 -3 83
-3 83 63 -3 c60 -3 63 -4 66 -30 2 -20 9 -28 23 -28 17 0 19 8 19 85 0 77 -2
85 -19 85 -14 0 -21 -8 -23 -27 -3 -27 -6 -28 -65 -31 l-63 -3 0 81 0 80 80 0
80 0 14 -35 c11 -25 21 -35 37 -35 20 0 21 3 14 46 -12 79 3 74 -202 74 l-184
0 3 -22z"/>
</g>
</svg>
